<svg width="135" height="64" viewBox="0 0 135 64" fill="none" xmlns="http://www.w3.org/2000/svg">
<path d="M8.92676 1.02183V20.354C8.92676 21.1615 9.82727 21.6557 10.5304 21.2339L26.6287 11.5919C27.2948 11.1941 27.2948 10.242 26.6287 9.84425L10.5304 0.154048C9.82727 -0.267789 8.92676 0.226363 8.92676 1.03388V1.02183Z" fill="url(#paint0_linear_28285_664)"/>
<path d="M25.7962 16.8237C26.3539 16.4932 27.0626 16.8807 27.0626 17.5188V44.7669C27.0626 46.0318 26.9115 47.2512 26.6327 48.425L9.00822 37.838L1.14284 33.0973C0.643265 32.801 0.596793 32.083 1.07313 31.7411L3.17599 30.4648C3.17599 30.4648 3.19922 30.4534 3.21084 30.442L25.7962 16.8237Z" fill="url(#paint1_linear_28285_664)"/>
<path d="M12.3192 39.8228L9.01972 37.8398V59.6519L8.98486 59.7089V62.8998C8.98486 63.6634 9.83298 64.1306 10.4952 63.7317L19.0925 58.5693C19.1971 58.5009 19.3016 58.444 19.4062 58.3756C21.9854 56.7801 24.0883 54.5009 25.4243 51.7886C25.9587 50.7288 26.3654 49.6006 26.6442 48.4268L12.3192 39.8228Z" fill="url(#paint2_linear_28285_664)"/>
<path d="M42.6655 23.9013C42.6655 23.1036 42.8979 22.4996 43.351 22.1121C43.8041 21.7247 44.5476 21.5195 45.5584 21.5195C46.5692 21.5195 47.3127 21.7247 47.7774 22.1235C48.2422 22.5224 48.4745 23.115 48.4745 23.9013C48.4745 25.474 47.4986 26.2603 45.5584 26.2603C43.6182 26.2603 42.6655 25.474 42.6655 23.9013ZM48.2654 43.2746H42.8049V27.7646H48.2654V43.2746Z" fill="#181818"/>
<path d="M61.3357 43.2758V34.8085C61.3357 33.7714 61.1847 32.9965 60.8826 32.4723C60.5805 31.9481 60.0926 31.6859 59.4187 31.6859C58.5009 31.6859 57.8271 32.0506 57.4204 32.7686C57.0138 33.4865 56.8047 34.7287 56.8047 36.4837V43.2758H51.3442V27.7657H55.457L56.1425 29.6802H56.4678C56.9325 28.9509 57.5831 28.4039 58.3964 28.0392C59.2096 27.6745 60.1623 27.4922 61.2428 27.4922C62.9971 27.4922 64.3564 27.9936 65.3207 28.9851C66.285 29.9765 66.7729 31.3782 66.7729 33.1902V43.2758H61.3125H61.3357Z" fill="#181818"/>
<path d="M82.0157 38.5119C82.0157 40.1757 81.4348 41.4293 80.2846 42.2726C79.1345 43.1159 77.4731 43.5489 75.3121 43.5489C74.1387 43.5489 73.1163 43.492 72.2566 43.3666C71.3969 43.2412 70.5023 43.0133 69.6077 42.6942V38.4093C70.4558 38.774 71.3853 39.0703 72.396 39.3096C73.4068 39.5489 74.3014 39.6629 75.103 39.6629C76.2881 39.6629 76.8806 39.4008 76.8806 38.8652C76.8806 38.5916 76.7179 38.3523 76.381 38.1358C76.0441 37.9193 75.0914 37.509 73.4997 36.8822C72.0475 36.301 71.0367 35.6287 70.4558 34.8879C69.8749 34.1472 69.5845 33.2013 69.5845 32.0617C69.5845 30.6144 70.1538 29.4976 71.2923 28.6885C72.4309 27.8793 74.0342 27.4805 76.1138 27.4805C77.1594 27.4805 78.1353 27.5944 79.0531 27.811C79.971 28.0389 80.9236 28.358 81.9112 28.791L80.4357 32.244C79.7154 31.9249 78.937 31.6514 78.1353 31.4235C77.3221 31.1956 76.6598 31.093 76.1486 31.093C75.2541 31.093 74.8126 31.3096 74.8126 31.7312C74.8126 31.9933 74.9636 32.2212 75.2773 32.4036C75.591 32.5859 76.4856 32.9734 77.9843 33.5432C79.088 33.9876 79.9129 34.4321 80.4589 34.8537C81.005 35.2754 81.4 35.7882 81.6556 36.3694C81.9112 36.9506 82.039 37.6572 82.039 38.4891L82.0157 38.5119Z" fill="#181818"/>
<path d="M84.2114 23.9013C84.2114 23.1036 84.4438 22.4996 84.8969 22.1121C85.35 21.7247 86.0935 21.5195 87.1043 21.5195C88.1151 21.5195 88.8586 21.7247 89.3233 22.1235C89.7881 22.5224 90.0204 23.115 90.0204 23.9013C90.0204 25.474 89.0445 26.2603 87.1043 26.2603C85.1641 26.2603 84.2114 25.474 84.2114 23.9013ZM89.8113 43.2746H84.3508V27.7646H89.8113V43.2746Z" fill="#181818"/>
<path d="M100.651 39.3188C101.383 39.3188 102.266 39.1364 103.288 38.7832V42.6806C102.556 42.9883 101.848 43.2162 101.185 43.3416C100.523 43.4783 99.7447 43.5353 98.8502 43.5353C97.0145 43.5353 95.7017 43.0909 94.8884 42.2134C94.0752 41.3359 93.6802 39.9797 93.6802 38.1564V31.7632H91.7632V29.5865L94.1913 27.8999L95.5971 24.6406H99.1755V27.7518H103.056V31.7632H99.1755V37.8031C99.1755 38.806 99.6634 39.3074 100.651 39.3074V39.3188Z" fill="#181818"/>
<path d="M112.978 43.5493C110.34 43.5493 108.296 42.8655 106.843 41.4866C105.391 40.1076 104.659 38.1589 104.659 35.6176C104.659 33.0763 105.333 30.9908 106.681 29.5891C108.028 28.1873 109.957 27.4922 112.455 27.4922C114.953 27.4922 116.672 28.0962 117.973 29.3156C119.275 30.5349 119.925 32.2899 119.925 34.5805V36.9623H110.166C110.201 37.8284 110.526 38.5122 111.13 39.0022C111.735 39.4923 112.571 39.743 113.617 39.743C114.581 39.743 115.452 39.6518 116.266 39.4809C117.067 39.2985 117.939 39.0022 118.88 38.5692V42.421C118.02 42.8541 117.137 43.1504 116.231 43.3099C115.325 43.4695 114.232 43.5607 112.966 43.5607L112.978 43.5493ZM112.652 31.1275C112.013 31.1275 111.467 31.3213 111.037 31.7201C110.608 32.119 110.352 32.7458 110.271 33.5891H114.964C114.941 32.8369 114.732 32.2444 114.314 31.7999C113.895 31.3555 113.349 31.1275 112.641 31.1275H112.652Z" fill="#181818"/>
<path d="M134.517 38.5119C134.517 40.1757 133.936 41.4293 132.786 42.2726C131.636 43.1159 129.975 43.5489 127.814 43.5489C126.64 43.5489 125.618 43.492 124.758 43.3666C123.898 43.2412 123.004 43.0133 122.109 42.6942V38.4093C122.957 38.774 123.887 39.0703 124.897 39.3096C125.908 39.5489 126.803 39.6629 127.604 39.6629C128.79 39.6629 129.382 39.4008 129.382 38.8652C129.382 38.5916 129.219 38.3523 128.882 38.1358C128.546 37.9193 127.593 37.509 126.001 36.8822C124.549 36.301 123.538 35.6287 122.957 34.8879C122.376 34.1472 122.086 33.2013 122.086 32.0617C122.086 30.6144 122.655 29.4976 123.794 28.6885C124.932 27.8793 126.536 27.4805 128.615 27.4805C129.661 27.4805 130.637 27.5944 131.555 27.811C132.472 28.0389 133.425 28.358 134.413 28.791L132.937 32.244C132.217 31.9249 131.438 31.6514 130.637 31.4235C129.824 31.1956 129.161 31.093 128.65 31.093C127.756 31.093 127.314 31.3096 127.314 31.7312C127.314 31.9933 127.465 32.2212 127.779 32.4036C128.092 32.5859 128.987 32.9734 130.486 33.5432C131.589 33.9876 132.414 34.4321 132.96 34.8537C133.506 35.2754 133.901 35.7882 134.157 36.3694C134.413 36.9506 134.54 37.6572 134.54 38.4891L134.517 38.5119Z" fill="#181818"/>
<path d="M52.0524 48.7614V58.2606H50.8218V50.6804L47.8333 58.2606H46.738L43.7359 50.7079V58.2606H42.5054V48.7614H43.9793L47.3059 56.7391L50.5784 48.7614H52.0524Z" fill="#4B4856"/>
<path d="M57.0634 50.6393C57.7846 50.6393 58.3931 50.8221 58.889 51.1876C59.3938 51.5531 59.7454 52.042 59.9437 52.6543V50.7353H61.1743V58.2606H59.9437V56.3415C59.7454 56.9538 59.3938 57.4427 58.889 57.8082C58.3931 58.1738 57.7846 58.3565 57.0634 58.3565C56.4053 58.3565 55.8193 58.2012 55.3054 57.8905C54.7916 57.5798 54.3859 57.1366 54.0884 56.5609C53.7999 55.976 53.6557 55.2907 53.6557 54.5048C53.6557 53.7189 53.7999 53.0335 54.0884 52.4487C54.3859 51.8638 54.7916 51.4161 55.3054 51.1054C55.8193 50.7947 56.4053 50.6393 57.0634 50.6393ZM57.415 51.7496C56.6577 51.7496 56.0492 51.9963 55.5894 52.4898C55.1387 52.9741 54.9133 53.6458 54.9133 54.5048C54.9133 55.3638 55.1387 56.04 55.5894 56.5334C56.0492 57.0178 56.6577 57.2599 57.415 57.2599C57.9018 57.2599 58.3345 57.1457 58.7132 56.9173C59.1008 56.6888 59.4028 56.369 59.6192 55.9577C59.8355 55.5374 59.9437 55.0531 59.9437 54.5048C59.9437 53.9565 59.8355 53.4722 59.6192 53.0518C59.4028 52.6314 59.1008 52.3116 58.7132 52.0923C58.3345 51.8638 57.9018 51.7496 57.415 51.7496Z" fill="#4B4856"/>
<path d="M64.3633 52.2568C64.6067 51.7359 64.9628 51.3338 65.4316 51.0505C65.9004 50.7581 66.4593 50.6119 67.1084 50.6119V51.9689H66.7298C66.0356 51.9689 65.4677 52.1517 65.0259 52.5172C64.5842 52.8736 64.3633 53.4676 64.3633 54.2992V58.2606H63.1328V50.7353H64.3633V52.2568Z" fill="#4B4856"/>
<path d="M72.3929 58.2606L69.5532 54.8749V58.2606H68.3226V48.1172H69.5532V54.0113L72.3524 50.7353H73.8534L70.5268 54.4774L73.9345 58.2606H72.3929Z" fill="#4B4856"/>
<path d="M81.8469 54.0798C81.8469 54.3449 81.8289 54.5733 81.7928 54.7652H75.8563C75.8834 55.6242 76.1223 56.2684 76.573 56.6979C77.0328 57.1274 77.5917 57.3422 78.2499 57.3422C78.8448 57.3422 79.3407 57.1914 79.7373 56.8898C80.143 56.5791 80.3909 56.1679 80.4811 55.6562H81.7928C81.7026 56.1771 81.4998 56.6431 81.1843 57.0543C80.8778 57.4655 80.4766 57.7854 79.9808 58.0138C79.4849 58.2423 78.926 58.3565 78.3039 58.3565C77.5917 58.3565 76.9607 58.2012 76.4108 57.8905C75.8608 57.5798 75.4281 57.1366 75.1126 56.5609C74.8061 55.976 74.6528 55.2907 74.6528 54.5048C74.6528 53.7189 74.8061 53.0335 75.1126 52.4487C75.4281 51.8638 75.8608 51.4161 76.4108 51.1054C76.9607 50.7947 77.5917 50.6393 78.3039 50.6393C79.0252 50.6393 79.6517 50.7947 80.1836 51.1054C80.7245 51.4161 81.1347 51.8319 81.4142 52.3527C81.7026 52.8736 81.8469 53.4493 81.8469 54.0798ZM80.6028 54.1621C80.6298 53.6047 80.5397 53.1386 80.3323 52.764C80.125 52.3893 79.841 52.1106 79.4804 51.9278C79.1198 51.745 78.7276 51.6537 78.3039 51.6537C77.6278 51.6537 77.0599 51.8684 76.6001 52.2979C76.1403 52.7183 75.8924 53.3397 75.8563 54.1621H80.6028Z" fill="#4B4856"/>
<path d="M86.9993 57.164V58.2606H86.0798C85.3225 58.2606 84.7546 58.0778 84.3759 57.7123C84.0063 57.3467 83.8215 56.7345 83.8215 55.8755V51.8181H82.7127V50.7353H83.8215V48.8574H85.0656V50.7353H86.9858V51.8181H85.0656V55.9029C85.0656 56.3872 85.1512 56.7208 85.3225 56.9035C85.5028 57.0772 85.8093 57.164 86.2421 57.164H86.9993Z" fill="#4B4856"/>
<path d="M92.5984 50.6393C93.2565 50.6393 93.8425 50.7947 94.3563 51.1054C94.8702 51.4161 95.2714 51.8638 95.5598 52.4487C95.8573 53.0335 96.0061 53.7189 96.0061 54.5048C96.0061 55.2907 95.8573 55.976 95.5598 56.5609C95.2714 57.1366 94.8702 57.5798 94.3563 57.8905C93.8425 58.2012 93.2565 58.3565 92.5984 58.3565C91.8772 58.3565 91.2641 58.1738 90.7593 57.8082C90.2635 57.4336 89.9209 56.9447 89.7316 56.3415V61.8245H88.501V50.7353H89.7316V52.6543C89.9209 52.0512 90.2635 51.5668 90.7593 51.2013C91.2641 50.8267 91.8772 50.6393 92.5984 50.6393ZM92.2468 51.7496C91.769 51.7496 91.3363 51.8638 90.9486 52.0923C90.561 52.3116 90.2589 52.6314 90.0426 53.0518C89.8262 53.4722 89.718 53.9565 89.718 54.5048C89.718 55.0531 89.8262 55.5374 90.0426 55.9577C90.2589 56.369 90.561 56.6888 90.9486 56.9173C91.3363 57.1457 91.769 57.2599 92.2468 57.2599C93.0131 57.2599 93.6216 57.0178 94.0723 56.5334C94.5321 56.04 94.762 55.3638 94.762 54.5048C94.762 53.6458 94.5321 52.9741 94.0723 52.4898C93.6216 51.9963 93.0131 51.7496 92.2468 51.7496Z" fill="#4B4856"/>
<path d="M98.8435 48.1172V58.2606H97.613V48.1172H98.8435Z" fill="#4B4856"/>
<path d="M103.865 50.6393C104.586 50.6393 105.194 50.8221 105.69 51.1876C106.195 51.5531 106.547 52.042 106.745 52.6543V50.7353H107.975V58.2606H106.745V56.3415C106.547 56.9538 106.195 57.4427 105.69 57.8082C105.194 58.1738 104.586 58.3565 103.865 58.3565C103.206 58.3565 102.62 58.2012 102.107 57.8905C101.593 57.5798 101.187 57.1366 100.89 56.5609C100.601 55.976 100.457 55.2907 100.457 54.5048C100.457 53.7189 100.601 53.0335 100.89 52.4487C101.187 51.8638 101.593 51.4161 102.107 51.1054C102.62 50.7947 103.206 50.6393 103.865 50.6393ZM104.216 51.7496C103.459 51.7496 102.85 51.9963 102.391 52.4898C101.94 52.9741 101.714 53.6458 101.714 54.5048C101.714 55.3638 101.94 56.04 102.391 56.5334C102.85 57.0178 103.459 57.2599 104.216 57.2599C104.703 57.2599 105.136 57.1457 105.514 56.9173C105.902 56.6888 106.204 56.369 106.42 55.9577C106.637 55.5374 106.745 55.0531 106.745 54.5048C106.745 53.9565 106.637 53.4722 106.42 53.0518C106.204 52.6314 105.902 52.3116 105.514 52.0923C105.136 51.8638 104.703 51.7496 104.216 51.7496Z" fill="#4B4856"/>
<path d="M113.22 50.6393C114.167 50.6393 114.951 50.8952 115.573 51.4069C116.195 51.9187 116.578 52.604 116.722 53.463H115.424C115.334 52.9239 115.086 52.5035 114.68 52.202C114.284 51.8913 113.788 51.7359 113.193 51.7359C112.76 51.7359 112.364 51.8364 112.003 52.0375C111.651 52.2385 111.367 52.5492 111.151 52.9696C110.935 53.3808 110.826 53.8925 110.826 54.5048C110.826 55.117 110.935 55.6333 111.151 56.0537C111.367 56.4649 111.651 56.771 112.003 56.9721C112.364 57.1731 112.76 57.2736 113.193 57.2736C113.788 57.2736 114.284 57.1183 114.68 56.8076C115.086 56.4969 115.334 56.072 115.424 55.5328H116.722C116.578 56.4009 116.195 57.0909 115.573 57.6026C114.951 58.1052 114.167 58.3565 113.22 58.3565C112.508 58.3565 111.877 58.2012 111.327 57.8905C110.777 57.5798 110.344 57.1366 110.029 56.5609C109.722 55.976 109.569 55.2907 109.569 54.5048C109.569 53.7189 109.722 53.0335 110.029 52.4487C110.344 51.8638 110.777 51.4161 111.327 51.1054C111.877 50.7947 112.508 50.6393 113.22 50.6393Z" fill="#4B4856"/>
<path d="M125.162 54.0798C125.162 54.3449 125.144 54.5733 125.108 54.7652H119.171C119.198 55.6242 119.437 56.2684 119.888 56.6979C120.348 57.1274 120.907 57.3422 121.565 57.3422C122.16 57.3422 122.656 57.1914 123.052 56.8898C123.458 56.5791 123.706 56.1679 123.796 55.6562H125.108C125.018 56.1771 124.815 56.6431 124.499 57.0543C124.193 57.4655 123.791 57.7854 123.296 58.0138C122.8 58.2423 122.241 58.3565 121.619 58.3565C120.907 58.3565 120.276 58.2012 119.726 57.8905C119.176 57.5798 118.743 57.1366 118.427 56.5609C118.121 55.976 117.968 55.2907 117.968 54.5048C117.968 53.7189 118.121 53.0335 118.427 52.4487C118.743 51.8638 119.176 51.4161 119.726 51.1054C120.276 50.7947 120.907 50.6393 121.619 50.6393C122.34 50.6393 122.967 50.7947 123.498 51.1054C124.039 51.4161 124.45 51.8319 124.729 52.3527C125.018 52.8736 125.162 53.4493 125.162 54.0798ZM123.918 54.1621C123.945 53.6047 123.855 53.1386 123.647 52.764C123.44 52.3893 123.156 52.1106 122.795 51.9278C122.435 51.745 122.043 51.6537 121.619 51.6537C120.943 51.6537 120.375 51.8684 119.915 52.2979C119.455 52.7183 119.207 53.3397 119.171 54.1621H123.918Z" fill="#4B4856"/>
<defs>
<linearGradient id="paint0_linear_28285_664" x1="20.2017" y1="18.1725" x2="8.63229" y2="3.42292" gradientUnits="userSpaceOnUse">
<stop stop-color="#3044FF"/>
<stop offset="1" stop-color="#0095FF"/>
</linearGradient>
<linearGradient id="paint1_linear_28285_664" x1="11.9592" y1="44.5161" x2="21.3209" y2="20.9942" gradientUnits="userSpaceOnUse">
<stop stop-color="#3044FF"/>
<stop offset="1" stop-color="#0095FF"/>
</linearGradient>
<linearGradient id="paint2_linear_28285_664" x1="17.1639" y1="46.5578" x2="13.1457" y2="68.3753" gradientUnits="userSpaceOnUse">
<stop stop-color="#110051"/>
<stop offset="1" stop-color="#4300C5"/>
</linearGradient>
</defs>
</svg>
